# xmcd
#
# Track frame offsets:
# 150
# 15651
# 30516
# 49920
# 73581
# 85509
# 103066
# 118615
# 134788
# 150623
# 166550
# 175172
# 189797
# 200831
#
# Disc length: 2979 seconds
#
# Revision: 0
# Processed by: cddbd v1.4PL0 Copyright (c) Steve Scherf et al.
# Submitted via: Audion 3.0.2 (http://www.panic.com/audion/)
#
DISCID=b20ba10e
DTITLE=B.B. King - [2003] - {320} King Of The Blues [CD 2]
DYEAR=1900
DGENRE=
TTITLE0=How Blue Can You Get?
TTITLE1=B.B. Boogie
TTITLE2=Sweet Sixteen
TTITLE3=You Done Lost Your Good Thing Now
TTITLE4=Paying The Cost To Be The Boss
TTITLE5=That Evil Child
TTITLE6=Walkin' And Cryin'
TTITLE7=It's My Own Fault Baby
TTITLE8=The Letter
TTITLE9=Long Nights
TTITLE10=A New Way Of Driving
TTITLE11=Mr. Pawnbroker
TTITLE12=Catfish Blues
TTITLE13=Every Day I Have The Blues
EXTD=
EXTT0=
EXTT1=
EXTT2=
EXTT3=
EXTT4=
EXTT5=
EXTT6=
EXTT7=
EXTT8=
EXTT9=
EXTT10=
EXTT11=
EXTT12=
EXTT13=
PLAYORDER=
